<svg width="1600" height="900" viewBox="0 0 1600 900" xmlns="http://www.w3.org/2000/svg">
  <defs>
    <linearGradient id="sky" x1="0%" y1="0%" x2="0%" y2="100%">
      <stop offset="0%" stop-color="#f2a49b"/>
      <stop offset="45%" stop-color="#f6d5b2"/>
      <stop offset="100%" stop-color="#7fb0d4"/>
    </linearGradient>
    <linearGradient id="road" x1="0%" y1="0%" x2="0%" y2="100%">
      <stop offset="0%" stop-color="#4b5363"/>
      <stop offset="100%" stop-color="#2e3442"/>
    </linearGradient>
    <linearGradient id="wallLeft" x1="0%" y1="0%" x2="100%" y2="0%">
      <stop offset="0%" stop-color="#4a2d21"/>
      <stop offset="100%" stop-color="#623b26"/>
    </linearGradient>
    <linearGradient id="wallRight" x1="0%" y1="0%" x2="100%" y2="0%">
      <stop offset="0%" stop-color="#8a502f"/>
      <stop offset="100%" stop-color="#693820"/>
    </linearGradient>
  </defs>
  <rect width="1600" height="900" fill="url(#sky)"/>
  <path d="M0 640 L650 420 C700 400 900 400 950 420 L1600 640 L1600 900 L0 900 Z" fill="url(#road)"/>
  <path d="M0 640 L550 430 C600 410 640 410 660 430 L260 640 Z" fill="#89725b" opacity="0.55"/>
  <path d="M1600 640 L1110 430 C1060 410 1020 410 990 430 L1390 640 Z" fill="#b68d66" opacity="0.6"/>
  <g transform="translate(220 260)">
    <path d="M-80 400 L-80 80 C-80 40 -40 10 10 6 L330 -20 C380 -24 420 10 420 60 L420 420 Z" fill="url(#wallLeft)"/>
    <g transform="translate(-20 0)" fill="#cba463">
      <rect x="0" y="40" width="60" height="90"/>
      <rect x="110" y="20" width="60" height="100"/>
      <rect x="220" y="0" width="60" height="120"/>
      <rect x="330" y="-10" width="60" height="130"/>
    </g>
    <g transform="translate(-50 70)" fill="#352017" opacity="0.55">
      <rect x="0" y="0" width="40" height="70" rx="6"/>
      <rect x="110" y="-10" width="40" height="80" rx="6"/>
      <rect x="220" y="-20" width="40" height="90" rx="6"/>
      <rect x="330" y="-30" width="40" height="100" rx="6"/>
    </g>
    <path d="M-80 400 L420 420 L420 360 L-80 340 Z" fill="#2b1f18"/>
  </g>
  <g transform="translate(1200 240)">
    <path d="M80 420 L80 70 C80 30 120 0 170 4 L480 24 C530 28 570 60 570 110 L570 420 Z" fill="url(#wallRight)"/>
    <g transform="translate(100 10)" fill="#d5a66e">
      <rect x="0" y="0" width="60" height="110"/>
      <rect x="120" y="10" width="60" height="110"/>
      <rect x="240" y="20" width="60" height="110"/>
      <rect x="360" y="30" width="60" height="110"/>
    </g>
    <g transform="translate(120 70)" fill="#472816" opacity="0.55">
      <rect x="0" y="0" width="44" height="80" rx="6"/>
      <rect x="120" y="0" width="44" height="80" rx="6"/>
      <rect x="240" y="0" width="44" height="80" rx="6"/>
      <rect x="360" y="0" width="44" height="80" rx="6"/>
    </g>
    <path d="M80 420 L570 420 L570 360 L80 360 Z" fill="#2b1f18"/>
  </g>
  <g transform="translate(720 210)">
    <rect x="-60" y="-20" width="120" height="320" fill="#493629"/>
    <rect x="-30" y="0" width="60" height="300" fill="#32241d"/>
  </g>
  <g transform="translate(740 520)" opacity="0.4">
    <ellipse cx="0" cy="0" rx="140" ry="40" fill="#14181f"/>
  </g>
</svg>
